<svg xmlns="http://www.w3.org/2000/svg" width="1200" height="630" viewBox="0 0 1200 630" fill="none">
  <defs>
    <linearGradient id="bg" x1="120" y1="40" x2="1080" y2="610" gradientUnits="userSpaceOnUse">
      <stop offset="0" stop-color="#EEF2FF" />
      <stop offset="0.52" stop-color="#E0E7FF" />
      <stop offset="1" stop-color="#F5D0FE" />
    </linearGradient>
    <linearGradient id="cityTop" x1="370" y1="280" x2="820" y2="420" gradientUnits="userSpaceOnUse">
      <stop offset="0" stop-color="#6366F1" />
      <stop offset="1" stop-color="#D946EF" />
    </linearGradient>
    <linearGradient id="citySide" x1="360" y1="320" x2="880" y2="500" gradientUnits="userSpaceOnUse">
      <stop offset="0" stop-color="#4338CA" />
      <stop offset="1" stop-color="#A21CAF" />
    </linearGradient>
    <radialGradient id="halo" cx="0" cy="0" r="1" gradientTransform="translate(628 250) rotate(90) scale(230 370)" gradientUnits="userSpaceOnUse">
      <stop offset="0" stop-color="#FFFFFF" stop-opacity="0.9" />
      <stop offset="1" stop-color="#FFFFFF" stop-opacity="0" />
    </radialGradient>
  </defs>

  <rect width="1200" height="630" fill="url(#bg)" />
  <rect width="1200" height="630" fill="url(#halo)" />

  <ellipse cx="600" cy="445" rx="310" ry="98" fill="#C7D2FE" fill-opacity="0.6" />

  <polygon points="600,250 880,390 600,530 320,390" fill="url(#cityTop)" fill-opacity="0.95" />
  <polygon points="600,530 880,390 880,480 600,620" fill="url(#citySide)" fill-opacity="0.84" />
  <polygon points="600,530 320,390 320,480 600,620" fill="#4F46E5" fill-opacity="0.62" />

  <polygon points="600,188 650,214 600,240 550,214" fill="#FDF4FF" />
  <polygon points="600,240 650,214 650,330 600,356" fill="#C026D3" fill-opacity="0.82" />
  <polygon points="600,240 550,214 550,330 600,356" fill="#7C3AED" fill-opacity="0.86" />

  <polygon points="510,240 546,258 510,276 474,258" fill="#EEF2FF" />
  <polygon points="510,276 546,258 546,342 510,360" fill="#6366F1" fill-opacity="0.78" />
  <polygon points="510,276 474,258 474,342 510,360" fill="#4F46E5" fill-opacity="0.82" />

  <polygon points="690,252 724,269 690,286 656,269" fill="#F5F3FF" />
  <polygon points="690,286 724,269 724,350 690,367" fill="#A855F7" fill-opacity="0.8" />
  <polygon points="690,286 656,269 656,350 690,367" fill="#7E22CE" fill-opacity="0.85" />

  <circle cx="532" cy="384" r="5" fill="#FFFFFF" fill-opacity="0.86" />
  <circle cx="565" cy="401" r="4" fill="#F0ABFC" fill-opacity="0.9" />
  <circle cx="635" cy="417" r="5" fill="#FFFFFF" fill-opacity="0.86" />
  <circle cx="670" cy="398" r="4" fill="#F0ABFC" fill-opacity="0.9" />

  <path d="M188 112h160" stroke="#FFFFFF" stroke-opacity="0.45" stroke-width="16" stroke-linecap="round" />
  <path d="M860 540h180" stroke="#FFFFFF" stroke-opacity="0.35" stroke-width="14" stroke-linecap="round" />

  <text x="110" y="150" font-family="Avenir, Montserrat, 'Segoe UI', sans-serif" font-size="50" font-weight="700" fill="#111827">
    Cultural
  </text>
  <text x="110" y="212" font-family="Avenir, Montserrat, 'Segoe UI', sans-serif" font-size="58" font-weight="800" fill="#D946EF">
    Archeologist
  </text>
</svg>
